<svg xmlns="http://www.w3.org/2000/svg" id="SvgjsSvg199795" width="4096" height="1802.6515634664684" version="1.1" xmlns:xlink="http://www.w3.org/1999/xlink" xmlns:svgjs="http://svgjs.com/svgjs"><defs id="SvgjsDefs199796"></defs><g id="SvgjsG199797" transform="translate(328, 328) scale(34.4)" opacity="1"><defs id="SvgjsDefs54776"></defs><g id="SvgjsG54777" transform="scale(0.21645021645021645)" opacity="1"><g id="SvgjsG54778" class="IyQ8QXfvp" transform="translate(154.00101419745513, -154.00101419745513) scale(1) rotate(90, 76.99898580254482, 230.99999999999997)" light-content="false" fill="#333333"><path d="M0 0 h 153.99797160508965 v 5 h -153.99797160508965 Z M0 0 h 5 v 461.99999999999994 h -5 Z M153.99797160508965 461.99999999999994 h -0 v -5 h 0 ZM29.259614604967034 461.99999999999994 h -29.259614604967034 v -5 h 29.259614604967034 Z M153.99797160508965 461.99999999999994 h -5 v -0 h 5 ZM153.99797160508965 254.1 h -5 v -254.1 h 5 Z" fill-rule="nonzero"></path></g><g id="SvgjsG54779" class="text" transform="translate(66.10428082425267, 79.13006945163035) scale(1)" light-content="false" fill="#444444"><path d="M-42.53 -51.39L-42.53 0L-34.35 0C-32.88 0 -31.46 -0.07 -30.07 -0.2C-28.69 -0.33 -27.39 -0.57 -26.16 -0.92C-24.94 -1.27 -23.82 -1.76 -22.79 -2.38C-21.77 -3 -20.89 -3.8 -20.14 -4.77C-19.4 -5.74 -18.83 -6.92 -18.41 -8.29C-18 -9.66 -17.8 -11.28 -17.8 -13.15L-17.8 -15.77C-17.8 -18.82 -18.44 -21.32 -19.74 -23.27C-21.03 -25.23 -22.95 -26.44 -25.5 -26.9L-25.5 -27.14C-24.64 -27.34 -23.8 -27.73 -22.97 -28.3C-22.15 -28.87 -21.42 -29.59 -20.78 -30.47C-20.13 -31.34 -19.62 -32.35 -19.23 -33.49C-18.84 -34.63 -18.64 -35.89 -18.64 -37.25L-18.64 -39.75C-18.64 -41.53 -18.88 -43.06 -19.35 -44.34C-19.82 -45.61 -20.45 -46.68 -21.24 -47.54C-22.04 -48.4 -22.96 -49.09 -24.03 -49.6C-25.09 -50.11 -26.21 -50.5 -27.4 -50.76C-28.58 -51.02 -29.79 -51.19 -31.04 -51.27C-32.28 -51.35 -33.48 -51.39 -34.65 -51.39ZM-33.38 -29.4L-34.89 -29.4L-34.89 -45.71L-33.38 -45.71C-32.1 -45.71 -31.01 -45.54 -30.12 -45.21C-29.23 -44.88 -28.5 -44.39 -27.95 -43.75C-27.4 -43.11 -27 -42.33 -26.76 -41.4C-26.52 -40.48 -26.4 -39.42 -26.4 -38.21L-26.4 -36.11C-26.4 -34.9 -26.57 -33.88 -26.9 -33.02C-27.23 -32.17 -27.7 -31.48 -28.31 -30.95C-28.93 -30.42 -29.66 -30.02 -30.53 -29.77C-31.39 -29.52 -32.34 -29.4 -33.38 -29.4ZM-32.66 -5.42L-34.89 -5.42L-34.89 -23.89L-32.66 -23.89C-31.38 -23.89 -30.29 -23.73 -29.41 -23.39C-28.53 -23.06 -27.81 -22.58 -27.26 -21.95C-26.71 -21.32 -26.31 -20.54 -26.07 -19.6C-25.83 -18.67 -25.71 -17.6 -25.71 -16.4L-25.71 -12.4C-25.71 -11.19 -25.88 -10.15 -26.21 -9.27C-26.54 -8.38 -27.01 -7.66 -27.62 -7.09C-28.23 -6.51 -28.97 -6.09 -29.82 -5.82C-30.67 -5.55 -31.62 -5.42 -32.66 -5.42Z M19.78 -51.39L19.78 0L27.43 0L27.43 -19.23L30.34 -19.23L37.18 0L45.42 0L37.18 -20.55C39.36 -21.63 41.02 -23.4 42.14 -25.86C43.26 -28.32 43.82 -31.5 43.82 -35.41L43.82 -36.71C43.82 -39.04 43.57 -41.02 43.07 -42.65C42.57 -44.29 41.9 -45.65 41.07 -46.73C40.24 -47.81 39.29 -48.66 38.21 -49.29C37.14 -49.91 36.03 -50.37 34.87 -50.69C33.72 -51 32.57 -51.19 31.41 -51.27C30.26 -51.35 29.2 -51.39 28.24 -51.39ZM28.6 -24.85L27.43 -24.85L27.43 -45.71L28.6 -45.71C30.02 -45.71 31.21 -45.55 32.15 -45.25C33.09 -44.95 33.85 -44.49 34.42 -43.87C34.99 -43.25 35.4 -42.46 35.64 -41.49C35.88 -40.53 36 -39.39 36 -38.06L36 -34C36 -32.28 35.87 -30.83 35.61 -29.65C35.35 -28.48 34.93 -27.54 34.35 -26.82C33.76 -26.11 33 -25.61 32.06 -25.3C31.12 -25 29.96 -24.85 28.6 -24.85Z"></path></g><g id="SvgjsG54780" class="text" transform="translate(230.61891712090878, 126.01368483474896) scale(1)" light-content="false" fill="#7f1111"><path d="M-213.3 -24.48L-213.3 0L-204.08 0L-204.08 -2.92L-209.59 -2.92L-209.59 -11.31L-205.44 -11.31L-205.44 -14.23L-209.59 -14.23L-209.59 -21.56L-204.23 -21.56L-204.23 -24.48Z M-186.72 -24.48L-186.72 0L-183.43 0L-183.43 -7.2C-183.43 -8.44 -183.44 -9.51 -183.47 -10.41C-183.5 -11.32 -183.53 -12.11 -183.57 -12.79C-183.61 -13.46 -183.65 -14.05 -183.7 -14.56C-183.75 -15.06 -183.79 -15.52 -183.81 -15.95L-183.7 -15.95L-177.79 0L-174.76 0L-174.76 -24.48L-178.08 -24.48L-178.08 -15.55C-178.08 -14.61 -178.07 -13.76 -178.04 -13C-178.01 -12.25 -177.98 -11.57 -177.94 -10.97C-177.9 -10.38 -177.86 -9.84 -177.81 -9.37C-177.76 -8.91 -177.72 -8.48 -177.69 -8.1L-177.78 -8.1L-183.71 -24.48Z M-155.89 -24.48L-155.89 0L-146.67 0L-146.67 -2.92L-152.18 -2.92L-152.18 -11.31L-148.04 -11.31L-148.04 -14.23L-152.18 -14.23L-152.18 -21.56L-146.82 -21.56L-146.82 -24.48Z M-129.32 -24.48L-129.32 0L-125.68 0L-125.68 -9.16L-124.28 -9.16L-121.03 0L-117.1 0L-121.03 -9.79C-119.99 -10.31 -119.2 -11.15 -118.67 -12.32C-118.13 -13.49 -117.86 -15.01 -117.86 -16.87L-117.86 -17.49C-117.86 -18.6 -117.98 -19.54 -118.22 -20.32C-118.46 -21.1 -118.78 -21.74 -119.17 -22.26C-119.57 -22.78 -120.03 -23.18 -120.54 -23.48C-121.05 -23.78 -121.58 -24 -122.13 -24.15C-122.68 -24.29 -123.23 -24.39 -123.78 -24.43C-124.33 -24.46 -124.83 -24.48 -125.29 -24.48ZM-125.12 -11.84L-125.68 -11.84L-125.68 -21.77L-125.12 -21.77C-124.44 -21.77 -123.87 -21.7 -123.42 -21.56C-122.98 -21.42 -122.61 -21.2 -122.34 -20.9C-122.07 -20.6 -121.88 -20.23 -121.76 -19.77C-121.65 -19.31 -121.59 -18.76 -121.59 -18.13L-121.59 -16.2C-121.59 -15.38 -121.65 -14.69 -121.78 -14.13C-121.9 -13.57 -122.1 -13.12 -122.38 -12.78C-122.66 -12.44 -123.02 -12.2 -123.47 -12.06C-123.92 -11.91 -124.47 -11.84 -125.12 -11.84Z M-94.67 0.23C-93.84 0.23 -93.12 0.03 -92.51 -0.37C-91.91 -0.76 -91.37 -1.41 -90.9 -2.32L-90.5 0L-88.03 0L-88.03 -12.4L-93.55 -12.4L-93.55 -9.96L-91.65 -9.96L-91.65 -6.77C-91.65 -6.17 -91.69 -5.62 -91.78 -5.12C-91.87 -4.61 -92.01 -4.17 -92.2 -3.8C-92.4 -3.43 -92.64 -3.13 -92.94 -2.92C-93.23 -2.7 -93.59 -2.59 -94 -2.59C-94.39 -2.59 -94.73 -2.66 -95.01 -2.79C-95.29 -2.92 -95.52 -3.13 -95.71 -3.44C-95.9 -3.75 -96.03 -4.15 -96.13 -4.66C-96.22 -5.17 -96.26 -5.8 -96.26 -6.57L-96.26 -17.66C-96.26 -18.44 -96.22 -19.1 -96.13 -19.62C-96.03 -20.15 -95.89 -20.57 -95.7 -20.89C-95.51 -21.21 -95.27 -21.44 -94.99 -21.57C-94.7 -21.71 -94.36 -21.77 -93.97 -21.77C-92.52 -21.77 -91.8 -20.43 -91.8 -17.75L-91.8 -16.58L-88.84 -16.58C-88.73 -17.12 -88.65 -17.61 -88.59 -18.05C-88.52 -18.5 -88.49 -18.98 -88.49 -19.51C-88.49 -20.22 -88.59 -20.88 -88.77 -21.52C-88.96 -22.15 -89.26 -22.7 -89.69 -23.17C-90.11 -23.64 -90.67 -24.02 -91.35 -24.29C-92.04 -24.56 -92.87 -24.7 -93.87 -24.7C-94.26 -24.7 -94.68 -24.67 -95.14 -24.61C-95.6 -24.55 -96.07 -24.43 -96.53 -24.25C-97 -24.06 -97.45 -23.79 -97.89 -23.44C-98.32 -23.08 -98.71 -22.61 -99.04 -22.01C-99.38 -21.41 -99.64 -20.68 -99.84 -19.8C-100.05 -18.93 -100.15 -17.87 -100.15 -16.64L-100.15 -7.97C-100.15 -6.75 -100.05 -5.69 -99.86 -4.81C-99.67 -3.93 -99.42 -3.18 -99.11 -2.57C-98.8 -1.97 -98.44 -1.48 -98.05 -1.11C-97.66 -0.74 -97.26 -0.46 -96.86 -0.26C-96.45 -0.06 -96.06 0.07 -95.67 0.14C-95.29 0.2 -94.96 0.23 -94.67 0.23Z M-67.02 -8.16L-67.02 0L-63.31 0L-63.31 -8.16L-58.35 -24.48L-62.07 -24.48L-65.04 -12.77L-65.21 -12.77L-68.21 -24.48L-71.95 -24.48Z M-21.49 -4.96C-21.49 -4.31 -21.41 -3.67 -21.23 -3.05C-21.05 -2.43 -20.75 -1.88 -20.31 -1.39C-19.88 -0.9 -19.29 -0.51 -18.56 -0.22C-17.83 0.08 -16.91 0.23 -15.8 0.23C-14.91 0.23 -14.1 0.1 -13.38 -0.16C-12.66 -0.43 -12.05 -0.8 -11.55 -1.29C-11.04 -1.78 -10.65 -2.37 -10.38 -3.07C-10.11 -3.77 -9.97 -4.55 -9.97 -5.42C-9.97 -6.47 -10.18 -7.47 -10.6 -8.41C-11.02 -9.35 -11.62 -10.33 -12.41 -11.35L-16.72 -16.57C-16.9 -16.81 -17.06 -17.04 -17.21 -17.26C-17.35 -17.48 -17.47 -17.71 -17.57 -17.94C-17.67 -18.17 -17.75 -18.43 -17.8 -18.71C-17.86 -18.98 -17.88 -19.29 -17.88 -19.64C-17.88 -20.29 -17.71 -20.81 -17.37 -21.19C-17.02 -21.58 -16.5 -21.77 -15.8 -21.77C-14.96 -21.77 -14.36 -21.43 -13.98 -20.73C-13.61 -20.04 -13.42 -19.05 -13.42 -17.75L-13.42 -16.58L-10.56 -16.58C-10.45 -17.12 -10.36 -17.61 -10.28 -18.05C-10.2 -18.5 -10.16 -18.98 -10.16 -19.51C-10.16 -20.13 -10.24 -20.75 -10.42 -21.37C-10.6 -21.98 -10.9 -22.54 -11.33 -23.04C-11.76 -23.53 -12.34 -23.93 -13.06 -24.24C-13.78 -24.54 -14.68 -24.7 -15.76 -24.7C-16.65 -24.7 -17.44 -24.56 -18.15 -24.29C-18.85 -24.02 -19.44 -23.63 -19.92 -23.14C-20.4 -22.65 -20.76 -22.07 -21.01 -21.39C-21.27 -20.71 -21.39 -19.96 -21.39 -19.15C-21.39 -18.14 -21.21 -17.18 -20.83 -16.29C-20.46 -15.4 -19.93 -14.51 -19.24 -13.63L-15.37 -9.03C-15.03 -8.6 -14.75 -8.21 -14.53 -7.86C-14.31 -7.51 -14.13 -7.18 -14 -6.87C-13.88 -6.55 -13.78 -6.23 -13.73 -5.91C-13.68 -5.59 -13.65 -5.24 -13.65 -4.86C-13.65 -4.11 -13.84 -3.55 -14.21 -3.16C-14.59 -2.77 -15.12 -2.58 -15.83 -2.58C-16.28 -2.58 -16.66 -2.67 -16.97 -2.85C-17.28 -3.02 -17.53 -3.28 -17.72 -3.63C-17.9 -3.98 -18.04 -4.41 -18.12 -4.92C-18.2 -5.42 -18.24 -6.01 -18.24 -6.67L-18.24 -7.86L-21.12 -7.86C-21.25 -7.34 -21.34 -6.86 -21.4 -6.41C-21.46 -5.97 -21.49 -5.49 -21.49 -4.96Z M13.25 0.22C13.61 0.22 14 0.18 14.44 0.11C14.88 0.05 15.32 -0.09 15.77 -0.29C16.21 -0.5 16.65 -0.79 17.07 -1.15C17.5 -1.52 17.87 -2.01 18.2 -2.62C18.52 -3.22 18.78 -3.96 18.99 -4.84C19.19 -5.71 19.29 -6.76 19.29 -7.97L19.29 -16.64C19.29 -17.89 19.19 -18.96 18.99 -19.85C18.8 -20.73 18.54 -21.47 18.21 -22.07C17.89 -22.66 17.51 -23.14 17.09 -23.49C16.67 -23.84 16.24 -24.1 15.8 -24.27C15.35 -24.45 14.91 -24.57 14.46 -24.62C14.02 -24.67 13.62 -24.7 13.25 -24.7C12.87 -24.7 12.45 -24.67 12 -24.61C11.56 -24.55 11.1 -24.43 10.65 -24.25C10.2 -24.06 9.76 -23.79 9.35 -23.44C8.93 -23.08 8.56 -22.61 8.24 -22.01C7.91 -21.41 7.65 -20.68 7.45 -19.8C7.26 -18.93 7.16 -17.87 7.16 -16.64L7.16 -7.97C7.16 -6.75 7.26 -5.69 7.45 -4.81C7.64 -3.93 7.89 -3.18 8.21 -2.58C8.53 -1.98 8.9 -1.49 9.32 -1.13C9.73 -0.76 10.17 -0.47 10.61 -0.27C11.06 -0.07 11.52 0.06 11.98 0.12C12.43 0.18 12.86 0.22 13.25 0.22ZM13.25 -2.58C12.88 -2.58 12.55 -2.64 12.28 -2.77C12 -2.89 11.77 -3.11 11.59 -3.41C11.41 -3.72 11.27 -4.12 11.18 -4.62C11.09 -5.12 11.04 -5.76 11.04 -6.52L11.04 -17.66C11.04 -18.44 11.09 -19.1 11.18 -19.62C11.27 -20.15 11.41 -20.57 11.59 -20.89C11.77 -21.21 12 -21.44 12.28 -21.57C12.55 -21.71 12.88 -21.77 13.25 -21.77C13.62 -21.77 13.93 -21.71 14.21 -21.57C14.48 -21.44 14.7 -21.21 14.88 -20.89C15.06 -20.57 15.19 -20.15 15.28 -19.62C15.37 -19.1 15.42 -18.44 15.42 -17.66L15.42 -6.52C15.42 -5.76 15.37 -5.12 15.28 -4.62C15.19 -4.12 15.06 -3.72 14.88 -3.41C14.7 -3.11 14.48 -2.89 14.21 -2.77C13.93 -2.64 13.62 -2.58 13.25 -2.58Z M37.48 -24.48L37.48 0L46.25 0L46.25 -2.92L41.19 -2.92L41.19 -24.48Z M63.19 -24.48L63.19 -7.53C63.19 -6.32 63.29 -5.3 63.47 -4.45C63.66 -3.61 63.91 -2.9 64.22 -2.32C64.54 -1.75 64.9 -1.29 65.3 -0.96C65.7 -0.63 66.12 -0.37 66.55 -0.19C66.98 -0.02 67.4 0.1 67.83 0.14C68.25 0.19 68.64 0.22 69 0.22C69.35 0.22 69.74 0.19 70.17 0.14C70.6 0.1 71.04 -0.02 71.47 -0.19C71.91 -0.37 72.33 -0.63 72.73 -0.96C73.14 -1.29 73.5 -1.75 73.81 -2.32C74.13 -2.9 74.38 -3.61 74.57 -4.46C74.76 -5.31 74.86 -6.33 74.86 -7.53L74.86 -24.48L71.16 -24.48L71.16 -6.54C71.16 -5.77 71.12 -5.14 71.03 -4.63C70.94 -4.12 70.8 -3.72 70.62 -3.42C70.45 -3.12 70.22 -2.9 69.95 -2.77C69.68 -2.64 69.36 -2.58 69 -2.58C68.63 -2.58 68.32 -2.64 68.06 -2.77C67.8 -2.9 67.58 -3.12 67.41 -3.42C67.25 -3.72 67.12 -4.12 67.05 -4.63C66.97 -5.14 66.93 -5.77 66.93 -6.54L66.93 -24.48Z M95.9 -21.56L95.9 0L99.62 0L99.62 -21.56L103.54 -21.56L103.54 -24.48L91.96 -24.48L91.96 -21.56Z M120.73 -24.48L120.73 0L124.44 0L124.44 -24.48Z M148.72 0.22C149.08 0.22 149.47 0.18 149.91 0.11C150.35 0.05 150.8 -0.09 151.24 -0.29C151.68 -0.5 152.12 -0.79 152.54 -1.15C152.97 -1.52 153.34 -2.01 153.67 -2.62C153.99 -3.22 154.26 -3.96 154.46 -4.84C154.66 -5.71 154.76 -6.76 154.76 -7.97L154.76 -16.64C154.76 -17.89 154.66 -18.96 154.47 -19.85C154.27 -20.73 154.01 -21.47 153.68 -22.07C153.36 -22.66 152.99 -23.14 152.57 -23.49C152.15 -23.84 151.71 -24.1 151.27 -24.27C150.82 -24.45 150.38 -24.57 149.94 -24.62C149.49 -24.67 149.09 -24.7 148.72 -24.7C148.34 -24.7 147.93 -24.67 147.48 -24.61C147.03 -24.55 146.58 -24.43 146.12 -24.25C145.67 -24.06 145.23 -23.79 144.82 -23.44C144.4 -23.08 144.03 -22.61 143.71 -22.01C143.38 -21.41 143.12 -20.68 142.93 -19.8C142.73 -18.93 142.63 -17.87 142.63 -16.64L142.63 -7.97C142.63 -6.75 142.73 -5.69 142.92 -4.81C143.11 -3.93 143.37 -3.18 143.69 -2.58C144.01 -1.98 144.37 -1.49 144.79 -1.13C145.21 -0.76 145.64 -0.47 146.09 -0.27C146.54 -0.07 146.99 0.06 147.45 0.12C147.91 0.18 148.33 0.22 148.72 0.22ZM148.72 -2.58C148.35 -2.58 148.03 -2.64 147.75 -2.77C147.47 -2.89 147.24 -3.11 147.06 -3.41C146.88 -3.72 146.74 -4.12 146.65 -4.62C146.56 -5.12 146.52 -5.76 146.52 -6.52L146.52 -17.66C146.52 -18.44 146.56 -19.1 146.65 -19.62C146.74 -20.15 146.88 -20.57 147.06 -20.89C147.24 -21.21 147.47 -21.44 147.75 -21.57C148.03 -21.71 148.35 -21.77 148.72 -21.77C149.09 -21.77 149.41 -21.71 149.68 -21.57C149.95 -21.44 150.17 -21.21 150.35 -20.89C150.53 -20.57 150.66 -20.15 150.75 -19.62C150.84 -19.1 150.89 -18.44 150.89 -17.66L150.89 -6.52C150.89 -5.76 150.84 -5.12 150.75 -4.62C150.66 -4.12 150.53 -3.72 150.35 -3.41C150.17 -3.11 149.95 -2.89 149.68 -2.77C149.41 -2.64 149.09 -2.58 148.72 -2.58Z M172.95 -24.48L172.95 0L176.25 0L176.25 -7.2C176.25 -8.44 176.23 -9.51 176.2 -10.41C176.17 -11.32 176.14 -12.11 176.1 -12.79C176.06 -13.46 176.02 -14.05 175.97 -14.56C175.93 -15.06 175.89 -15.52 175.86 -15.95L175.97 -15.95L181.88 0L184.92 0L184.92 -24.48L181.59 -24.48L181.59 -15.55C181.59 -14.61 181.61 -13.76 181.64 -13C181.66 -12.25 181.7 -11.57 181.74 -10.97C181.77 -10.38 181.82 -9.84 181.87 -9.37C181.91 -8.91 181.95 -8.48 181.98 -8.1L181.89 -8.1L175.96 -24.48Z M202.84 -4.96C202.84 -4.31 202.92 -3.67 203.1 -3.05C203.28 -2.43 203.58 -1.88 204.02 -1.39C204.45 -0.9 205.04 -0.51 205.77 -0.22C206.5 0.08 207.42 0.23 208.53 0.23C209.43 0.23 210.23 0.1 210.95 -0.16C211.67 -0.43 212.28 -0.8 212.78 -1.29C213.29 -1.78 213.68 -2.37 213.95 -3.07C214.22 -3.77 214.36 -4.55 214.36 -5.42C214.36 -6.47 214.15 -7.47 213.73 -8.41C213.31 -9.35 212.71 -10.33 211.92 -11.35L207.61 -16.57C207.43 -16.81 207.27 -17.04 207.12 -17.26C206.98 -17.48 206.86 -17.71 206.76 -17.94C206.66 -18.17 206.58 -18.43 206.53 -18.71C206.47 -18.98 206.45 -19.29 206.45 -19.64C206.45 -20.29 206.62 -20.81 206.96 -21.19C207.31 -21.58 207.83 -21.77 208.53 -21.77C209.37 -21.77 209.97 -21.43 210.35 -20.73C210.72 -20.04 210.91 -19.05 210.91 -17.75L210.91 -16.58L213.77 -16.58C213.88 -17.12 213.97 -17.61 214.05 -18.05C214.13 -18.5 214.17 -18.98 214.17 -19.51C214.17 -20.13 214.09 -20.75 213.91 -21.37C213.73 -21.98 213.43 -22.54 213 -23.04C212.57 -23.53 211.99 -23.93 211.27 -24.24C210.55 -24.54 209.65 -24.7 208.57 -24.7C207.68 -24.7 206.89 -24.56 206.18 -24.29C205.48 -24.02 204.89 -23.63 204.41 -23.14C203.94 -22.65 203.57 -22.07 203.32 -21.39C203.06 -20.71 202.94 -19.96 202.94 -19.15C202.94 -18.14 203.12 -17.18 203.5 -16.29C203.87 -15.4 204.4 -14.51 205.09 -13.63L208.96 -9.03C209.3 -8.6 209.58 -8.21 209.8 -7.86C210.02 -7.51 210.2 -7.18 210.33 -6.87C210.45 -6.55 210.55 -6.23 210.6 -5.91C210.65 -5.59 210.68 -5.24 210.68 -4.86C210.68 -4.11 210.49 -3.55 210.12 -3.16C209.75 -2.77 209.21 -2.58 208.5 -2.58C208.05 -2.58 207.67 -2.67 207.36 -2.85C207.05 -3.02 206.8 -3.28 206.61 -3.63C206.43 -3.98 206.29 -4.41 206.21 -4.92C206.13 -5.42 206.09 -6.01 206.09 -6.67L206.09 -7.86L203.21 -7.86C203.08 -7.34 202.99 -6.86 202.93 -6.41C202.87 -5.97 202.84 -5.49 202.84 -4.96Z"></path></g><g id="SvgjsG54781" class="fN1qmQHGWs" transform="translate(133.49563720116512, 24.88520576385603) scale(0.5709727375548639) rotate(180, 49.99999999999999, 50)" light-content="false" non-strokable="false" fill="#7f1111"><path d="M18.448 5l2.608 17.448H6.04v10.744h16.624L31.2 90.264 31.96 95h36.08l.76-4.736 8.536-57.072H93.96V22.448H78.944L81.552 5h-11.12l-2.648 17.448H32.216L29.568 5h-11.12zm15.4 28.192h32.304l-7.712 50.8H41.56l-7.712-50.8z" overflow="visible" color="#000" style="text-indent: 0; text-transform: none; block-progression: tb"></path></g><g id="SvgjsG54782" class="text" transform="translate(312.22254919975364, 79.13365965016948) scale(1)" light-content="false" fill="#444444"><path d="M-102.88 -51.24L-102.88 0L-95.98 0L-95.98 -15.06C-95.98 -17.66 -96.01 -19.9 -96.07 -21.79C-96.13 -23.68 -96.2 -25.34 -96.28 -26.76C-96.36 -28.18 -96.45 -29.41 -96.55 -30.46C-96.65 -31.51 -96.73 -32.49 -96.79 -33.39L-96.55 -33.39L-84.19 0L-77.83 0L-77.83 -51.24L-84.79 -51.24L-84.79 -32.55C-84.79 -30.57 -84.76 -28.79 -84.7 -27.21C-84.64 -25.63 -84.57 -24.21 -84.49 -22.96C-84.41 -21.71 -84.32 -20.6 -84.22 -19.62C-84.12 -18.64 -84.04 -17.75 -83.98 -16.95L-84.16 -16.95L-96.58 -51.24Z M-38.35 -51.24L-38.35 0L-30.28 0C-29.06 0 -27.8 -0.03 -26.49 -0.1C-25.18 -0.17 -23.9 -0.39 -22.65 -0.75C-21.4 -1.11 -20.22 -1.66 -19.11 -2.41C-18 -3.16 -17.02 -4.21 -16.18 -5.55C-15.34 -6.89 -14.68 -8.59 -14.19 -10.65C-13.7 -12.71 -13.45 -15.22 -13.45 -18.18L-13.45 -33.06C-13.45 -36.02 -13.7 -38.52 -14.19 -40.57C-14.68 -42.62 -15.34 -44.32 -16.18 -45.67C-17.02 -47.02 -18 -48.07 -19.11 -48.82C-20.22 -49.57 -21.4 -50.13 -22.65 -50.49C-23.9 -50.85 -25.18 -51.06 -26.49 -51.13C-27.8 -51.2 -29.06 -51.24 -30.28 -51.24ZM-28.6 -5.43L-30.58 -5.43L-30.58 -45.57L-28.6 -45.57C-27.2 -45.57 -26.05 -45.39 -25.14 -45.03C-24.23 -44.67 -23.51 -44.03 -22.98 -43.12C-22.45 -42.21 -22.08 -40.97 -21.88 -39.4C-21.68 -37.83 -21.58 -35.85 -21.58 -33.45L-21.58 -17.55C-21.58 -15.15 -21.68 -13.16 -21.88 -11.59C-22.08 -10.02 -22.45 -8.78 -22.98 -7.87C-23.51 -6.96 -24.23 -6.33 -25.14 -5.97C-26.05 -5.61 -27.2 -5.43 -28.6 -5.43Z M24.19 -51.24L24.19 0L43.48 0L43.48 -6.12L31.96 -6.12L31.96 -23.67L40.63 -23.67L40.63 -29.79L31.96 -29.79L31.96 -45.12L43.18 -45.12L43.18 -51.24Z M79.81 -51.24L79.81 0L87.88 0C89.1 0 90.36 -0.03 91.67 -0.1C92.98 -0.17 94.26 -0.39 95.51 -0.75C96.76 -1.11 97.94 -1.66 99.05 -2.41C100.16 -3.16 101.14 -4.21 101.98 -5.55C102.82 -6.89 103.48 -8.59 103.97 -10.65C104.46 -12.71 104.71 -15.22 104.71 -18.18L104.71 -33.06C104.71 -36.02 104.46 -38.52 103.97 -40.57C103.48 -42.62 102.82 -44.32 101.98 -45.67C101.14 -47.02 100.16 -48.07 99.05 -48.82C97.94 -49.57 96.76 -50.13 95.51 -50.49C94.26 -50.85 92.98 -51.06 91.67 -51.13C90.36 -51.2 89.1 -51.24 87.88 -51.24ZM89.56 -5.43L87.58 -5.43L87.58 -45.57L89.56 -45.57C90.96 -45.57 92.11 -45.39 93.02 -45.03C93.93 -44.67 94.65 -44.03 95.18 -43.12C95.71 -42.21 96.08 -40.97 96.28 -39.4C96.48 -37.83 96.58 -35.85 96.58 -33.45L96.58 -17.55C96.58 -15.15 96.48 -13.16 96.28 -11.59C96.08 -10.02 95.71 -8.78 95.18 -7.87C94.65 -6.96 93.93 -6.33 93.02 -5.97C92.11 -5.61 90.96 -5.43 89.56 -5.43Z"></path></g></g></g></svg>